<?xml version="1.0" encoding="UTF-8" standalone="no"?>
<!-- Created with Inkscape (http://www.inkscape.org/) -->

<svg
   version="1.1"
   id="svg2"
   xml:space="preserve"
   width="377.95334"
   height="377.95334"
   viewBox="0 0 377.95334 377.95334"
   sodipodi:docname="logo.svg"
   inkscape:version="1.1.2 (0a00cf5339, 2022-02-04)"
   xmlns:inkscape="http://www.inkscape.org/namespaces/inkscape"
   xmlns:sodipodi="http://sodipodi.sourceforge.net/DTD/sodipodi-0.dtd"
   xmlns="http://www.w3.org/2000/svg"
   xmlns:svg="http://www.w3.org/2000/svg"><defs
     id="defs6"><clipPath
       clipPathUnits="userSpaceOnUse"
       id="clipPath16"><path
         d="M 0,283.465 H 283.465 V 0 H 0 Z"
         id="path14" /></clipPath><radialGradient
       fx="0"
       fy="0"
       cx="0"
       cy="0"
       r="1"
       gradientUnits="userSpaceOnUse"
       gradientTransform="matrix(128.43625,55.241394,59.758156,-138.93771,79.83905,132.27873)"
       spreadMethod="pad"
       id="radialGradient238"><stop
         style="stop-opacity:1;stop-color:#bc1f26"
         offset="0"
         id="stop228" /><stop
         style="stop-opacity:1;stop-color:#bc1f26"
         offset="0.0816391"
         id="stop230" /><stop
         style="stop-opacity:1;stop-color:#e84246"
         offset="0.490553"
         id="stop232" /><stop
         style="stop-opacity:1;stop-color:#b21b20"
         offset="0.748402"
         id="stop234" /><stop
         style="stop-opacity:1;stop-color:#b21b20"
         offset="1"
         id="stop236" /></radialGradient><linearGradient
       x1="0"
       y1="0"
       x2="1"
       y2="0"
       gradientUnits="userSpaceOnUse"
       gradientTransform="matrix(-55.786274,-32.973331,-32.973331,55.786274,150.27914,195.14076)"
       spreadMethod="pad"
       id="linearGradient258"><stop
         style="stop-opacity:1;stop-color:#c31e23"
         offset="0"
         id="stop254" /><stop
         style="stop-opacity:1;stop-color:#8b1815"
         offset="1"
         id="stop256" /></linearGradient><linearGradient
       x1="0"
       y1="0"
       x2="1"
       y2="0"
       gradientUnits="userSpaceOnUse"
       gradientTransform="matrix(-1.6614381,-3.2589748,-3.2589748,1.6614381,130.95316,210.74577)"
       spreadMethod="pad"
       id="linearGradient282"><stop
         style="stop-opacity:1;stop-color:#e51c2d"
         offset="0"
         id="stop274" /><stop
         style="stop-opacity:1;stop-color:#e94448"
         offset="0.625668"
         id="stop276" /><stop
         style="stop-opacity:1;stop-color:#bb1c22"
         offset="0.981283"
         id="stop278" /><stop
         style="stop-opacity:1;stop-color:#bb1c22"
         offset="1"
         id="stop280" /></linearGradient><linearGradient
       x1="0"
       y1="0"
       x2="1"
       y2="0"
       gradientUnits="userSpaceOnUse"
       gradientTransform="matrix(8.8184566,13.227686,13.227686,-8.8184566,146.15929,202.54364)"
       spreadMethod="pad"
       id="linearGradient304"><stop
         style="stop-opacity:1;stop-color:#e5252b"
         offset="0"
         id="stop298" /><stop
         style="stop-opacity:1;stop-color:#e5252b"
         offset="0.00534759"
         id="stop300" /><stop
         style="stop-opacity:1;stop-color:#de1b22"
         offset="1"
         id="stop302" /></linearGradient><linearGradient
       x1="0"
       y1="0"
       x2="1"
       y2="0"
       gradientUnits="userSpaceOnUse"
       gradientTransform="matrix(-4.0897322,1.1502371,1.1502371,4.0897322,145.18999,165.129)"
       spreadMethod="pad"
       id="linearGradient326"><stop
         style="stop-opacity:1;stop-color:#e5373b"
         offset="0"
         id="stop320" /><stop
         style="stop-opacity:1;stop-color:#e5373b"
         offset="0.320856"
         id="stop322" /><stop
         style="stop-opacity:1;stop-color:#b21b20"
         offset="1"
         id="stop324" /></linearGradient><linearGradient
       x1="0"
       y1="0"
       x2="1"
       y2="0"
       gradientUnits="userSpaceOnUse"
       gradientTransform="matrix(-20.512464,52.335541,52.335541,20.512464,173.99727,141.7556)"
       spreadMethod="pad"
       id="linearGradient348"><stop
         style="stop-opacity:1;stop-color:#da1921"
         offset="0"
         id="stop342" /><stop
         style="stop-opacity:1;stop-color:#da1921"
         offset="0.00534759"
         id="stop344" /><stop
         style="stop-opacity:1;stop-color:#e94448"
         offset="1"
         id="stop346" /></linearGradient><linearGradient
       x1="0"
       y1="0"
       x2="1"
       y2="0"
       gradientUnits="userSpaceOnUse"
       gradientTransform="matrix(0,1.9819847,1.9819847,0,172.7314,196.57486)"
       spreadMethod="pad"
       id="linearGradient370"><stop
         style="stop-opacity:1;stop-color:#e94447"
         offset="0"
         id="stop364" /><stop
         style="stop-opacity:1;stop-color:#e94447"
         offset="0.00534759"
         id="stop366" /><stop
         style="stop-opacity:1;stop-color:#e11827"
         offset="1"
         id="stop368" /></linearGradient><radialGradient
       fx="0"
       fy="0"
       cx="0"
       cy="0"
       r="1"
       gradientUnits="userSpaceOnUse"
       gradientTransform="matrix(5.9188209,2.5457294,2.7538786,-6.4027681,149.09506,195.91455)"
       spreadMethod="pad"
       id="radialGradient396"><stop
         style="stop-opacity:1;stop-color:#bc1f26"
         offset="0"
         id="stop386" /><stop
         style="stop-opacity:1;stop-color:#bc1f26"
         offset="0.0816391"
         id="stop388" /><stop
         style="stop-opacity:1;stop-color:#e84246"
         offset="0.490553"
         id="stop390" /><stop
         style="stop-opacity:1;stop-color:#e5373b"
         offset="0.748402"
         id="stop392" /><stop
         style="stop-opacity:1;stop-color:#e5373b"
         offset="1"
         id="stop394" /></radialGradient><clipPath
       clipPathUnits="userSpaceOnUse"
       id="clipPath406"><path
         d="M 0,283.465 H 283.465 V 0 H 0 Z"
         id="path404" /></clipPath></defs><sodipodi:namedview
     id="namedview4"
     pagecolor="#ffffff"
     bordercolor="#666666"
     borderopacity="1.0"
     inkscape:pageshadow="2"
     inkscape:pageopacity="0.0"
     inkscape:pagecheckerboard="0"
     showgrid="false"
     inkscape:zoom="2.3098089"
     inkscape:cx="188.97667"
     inkscape:cy="188.7602"
     inkscape:window-width="2560"
     inkscape:window-height="1333"
     inkscape:window-x="2560"
     inkscape:window-y="0"
     inkscape:window-maximized="1"
     inkscape:current-layer="g8" /><g
     id="g8"
     inkscape:groupmode="layer"
     inkscape:label="logo_CIRCLE_100x100"
     transform="matrix(1.3333333,0,0,-1.3333333,0,377.95333)"><g
       id="g10"><g
         id="g12"
         clip-path="url(#clipPath16)"><g
           id="g18"
           transform="translate(7.9436,141.7324)"><path
             d="m 0,0 c 0,73.889 59.899,133.789 133.788,133.789 73.89,0 133.789,-59.9 133.789,-133.789 0,-73.89 -59.899,-133.789 -133.789,-133.789 C 59.899,-133.789 0,-73.89 0,0"
             style="fill:#000000;fill-opacity:1;fill-rule:evenodd;stroke:none"
             id="path20" /></g><g
           id="g22"
           transform="translate(141.7316,274.6635)"><path
             d="m 0,0 c -73.298,0 -132.931,-59.633 -132.931,-132.932 0,-73.297 59.633,-132.93 132.931,-132.93 73.299,0 132.932,59.633 132.932,132.93 C 132.932,-59.633 73.299,0 0,0 m 0,-267.577 c -35.965,0 -69.777,14.006 -95.208,39.437 -25.432,25.431 -39.438,59.244 -39.438,95.208 0,35.966 14.006,69.778 39.438,95.209 25.431,25.432 59.243,39.437 95.208,39.437 35.966,0 69.778,-14.005 95.21,-39.437 25.431,-25.431 39.436,-59.243 39.436,-95.209 0,-35.964 -14.005,-69.777 -39.436,-95.208 C 69.778,-253.571 35.966,-267.577 0,-267.577"
             style="fill:#e52623;fill-opacity:1;fill-rule:nonzero;stroke:none"
             id="path24" /></g><g
           id="g26"
           transform="translate(37.3703,141.7324)"><path
             d="m 0,0 c 0,57.637 46.725,104.362 104.361,104.362 57.638,0 104.363,-46.725 104.363,-104.362 0,-57.638 -46.725,-104.362 -104.363,-104.362 C 46.725,-104.362 0,-57.638 0,0"
             style="fill:#ffffff;fill-opacity:1;fill-rule:evenodd;stroke:none"
             id="path28" /></g><g
           id="g30"
           transform="translate(30.801,106.3774)"><path
             d="M 0,0 -0.967,3.197 -5.986,-0.067 Z M 3.374,6.017 0.607,4.218 1.88,0.014 5.177,0.059 5.795,-1.984 -8.448,-1.892 -9.053,0.106 2.75,8.079 Z"
             style="fill:#ffffff;fill-opacity:1;fill-rule:nonzero;stroke:none"
             id="path32" /></g><g
           id="g34"
           transform="translate(27.3068,126.7441)"><path
             d="M 0,0 C 1.14,0.244 2.171,0.037 3.094,-0.622 4.017,-1.281 4.593,-2.293 4.824,-3.659 5.047,-4.975 4.863,-6.087 4.272,-6.996 3.682,-7.904 2.859,-8.466 1.805,-8.683 L 1.469,-6.69 c 0.538,0.155 0.952,0.484 1.242,0.989 0.29,0.505 0.379,1.088 0.268,1.749 -0.123,0.717 -0.429,1.254 -0.922,1.61 -0.495,0.356 -1.035,0.452 -1.623,0.288 -0.376,-0.089 -0.691,-0.283 -0.945,-0.583 -0.255,-0.3 -0.451,-0.649 -0.589,-1.047 -0.137,-0.399 -0.258,-0.833 -0.361,-1.303 -0.103,-0.47 -0.223,-0.94 -0.358,-1.412 -0.135,-0.472 -0.307,-0.909 -0.515,-1.309 -0.208,-0.401 -0.504,-0.756 -0.888,-1.065 -0.384,-0.309 -0.849,-0.516 -1.396,-0.621 -1.168,-0.223 -2.157,10e-4 -2.967,0.672 -0.81,0.672 -1.311,1.581 -1.506,2.729 -0.191,1.135 -0.02,2.126 0.513,2.973 0.533,0.848 1.315,1.41 2.347,1.687 l 0.334,-1.974 c -0.458,-0.18 -0.823,-0.478 -1.096,-0.893 -0.273,-0.415 -0.363,-0.897 -0.27,-1.446 0.099,-0.586 0.358,-1.047 0.778,-1.384 0.42,-0.336 0.901,-0.446 1.446,-0.327 0.494,0.108 0.888,0.408 1.181,0.897 0.292,0.488 0.512,1.055 0.66,1.699 0.148,0.644 0.311,1.289 0.49,1.935 0.181,0.647 0.492,1.239 0.937,1.776 C -1.326,-0.513 -0.735,-0.163 0,0"
             style="fill:#ffffff;fill-opacity:1;fill-rule:nonzero;stroke:none"
             id="path36" /></g><g
           id="g38"
           transform="translate(26.3469,140.7627)"><path
             d="M 0,0 C 1.16,0.104 2.159,-0.227 2.995,-0.992 3.832,-1.758 4.281,-2.833 4.346,-4.216 4.407,-5.55 4.09,-6.631 3.394,-7.461 2.697,-8.291 1.812,-8.75 0.74,-8.837 L 0.647,-6.818 C 1.2,-6.729 1.651,-6.453 2,-5.987 c 0.35,0.466 0.508,1.034 0.478,1.703 -0.034,0.727 -0.274,1.297 -0.72,1.71 C 1.312,-2.161 0.786,-2 0.182,-2.09 c -0.384,-0.044 -0.721,-0.199 -1.009,-0.465 -0.289,-0.267 -0.526,-0.59 -0.711,-0.968 -0.185,-0.38 -0.357,-0.796 -0.517,-1.25 -0.159,-0.454 -0.335,-0.907 -0.526,-1.358 -0.19,-0.452 -0.414,-0.865 -0.669,-1.238 -0.255,-0.373 -0.593,-0.689 -1.011,-0.949 -0.419,-0.26 -0.906,-0.409 -1.461,-0.447 -1.187,-0.08 -2.141,0.262 -2.864,1.027 -0.723,0.764 -1.11,1.728 -1.164,2.89 -0.053,1.151 0.237,2.114 0.869,2.89 0.632,0.776 1.477,1.24 2.533,1.39 l 0.093,-2 c -0.475,-0.123 -0.874,-0.374 -1.195,-0.753 -0.321,-0.38 -0.47,-0.847 -0.444,-1.403 0.028,-0.594 0.23,-1.083 0.605,-1.468 0.375,-0.385 0.841,-0.552 1.395,-0.501 0.504,0.049 0.931,0.298 1.282,0.748 0.349,0.45 0.636,0.986 0.861,1.607 0.225,0.621 0.465,1.242 0.722,1.862 0.256,0.62 0.637,1.169 1.144,1.648 C -1.379,-0.348 -0.75,-0.072 0,0"
             style="fill:#ffffff;fill-opacity:1;fill-rule:nonzero;stroke:none"
             id="path40" /></g><g
           id="g42"
           transform="translate(21.5666,153.8813)"><path
             d="M 0,0 C -0.764,0.06 -1.415,-0.125 -1.957,-0.552 -2.497,-0.979 -2.8,-1.6 -2.863,-2.413 c -0.064,-0.814 0.138,-1.475 0.606,-1.984 0.469,-0.509 1.083,-0.794 1.847,-0.853 l 5.032,-0.393 c 0.764,-0.06 1.416,0.126 1.956,0.556 0.542,0.431 0.845,1.053 0.907,1.866 0.064,0.814 -0.137,1.473 -0.606,1.98 -0.468,0.506 -1.083,0.788 -1.847,0.848 z m -4.717,-2.268 c 0.109,1.393 0.62,2.494 1.533,3.302 0.913,0.807 1.991,1.162 3.234,1.066 L 5.318,1.688 C 6.561,1.591 7.57,1.073 8.348,0.133 9.124,-0.806 9.458,-1.973 9.35,-3.367 9.239,-4.773 8.727,-5.876 7.811,-6.677 6.896,-7.479 5.819,-7.83 4.583,-7.734 l -5.27,0.411 c -1.242,0.097 -2.251,0.613 -3.029,1.546 -0.777,0.933 -1.111,2.102 -1.001,3.509"
             style="fill:#ffffff;fill-opacity:1;fill-rule:nonzero;stroke:none"
             id="path44" /></g><g
           id="g46"
           transform="translate(31.1418,165.1846)"><path
             d="m 0,0 c 0.149,0.712 0.078,1.327 -0.217,1.845 -0.295,0.518 -0.711,0.884 -1.247,1.101 l 0.435,2.061 C 0.027,4.681 0.834,4.018 1.393,3.018 c 0.558,-1 0.703,-2.141 0.432,-3.422 -0.288,-1.368 -0.938,-2.39 -1.95,-3.065 -1.013,-0.676 -2.125,-0.885 -3.338,-0.63 l -5.172,1.091 c -1.219,0.257 -2.153,0.898 -2.803,1.924 -0.65,1.026 -0.832,2.223 -0.543,3.591 0.27,1.281 0.861,2.265 1.772,2.952 0.911,0.687 1.916,0.97 3.015,0.849 L -7.629,4.246 c -0.577,0.019 -1.106,-0.15 -1.585,-0.504 -0.478,-0.355 -0.793,-0.888 -0.943,-1.6 -0.168,-0.799 -0.054,-1.481 0.344,-2.046 0.398,-0.566 0.971,-0.928 1.72,-1.085 l 4.94,-1.042 c 0.749,-0.157 1.42,-0.058 2.011,0.298 C -0.549,-1.376 -0.169,-0.798 0,0"
             style="fill:#ffffff;fill-opacity:1;fill-rule:nonzero;stroke:none"
             id="path48" /></g><g
           id="g50"
           transform="translate(22.924,180.7651)"><path
             d="M 0,0 12.963,-4.137 12.331,-6.116 -0.631,-1.979 Z"
             style="fill:#ffffff;fill-opacity:1;fill-rule:nonzero;stroke:none"
             id="path52" /></g><g
           id="g54"
           transform="translate(34.2492,186.4878)"><path
             d="M 0,0 1.33,3.063 -4.609,3.821 Z M 6.466,2.407 3.191,2.825 1.442,-1.206 3.987,-3.303 3.138,-5.261 -7.667,4.02 -6.836,5.935 7.323,4.383 Z"
             style="fill:#ffffff;fill-opacity:1;fill-rule:nonzero;stroke:none"
             id="path56" /></g><g
           id="g58"
           transform="translate(36.5998,209.5766)"><path
             d="m 0,0 0.971,-0.577 5.668,-11.262 3.506,5.897 1.589,-0.946 -4.878,-8.205 -0.97,0.577 -5.677,11.246 -3.375,-5.676 -1.59,0.945 z"
             style="fill:#ffffff;fill-opacity:1;fill-rule:nonzero;stroke:none"
             id="path60" /></g><g
           id="g62"
           transform="translate(41.5422,216.5307)"><path
             d="M 0,0 10.964,-8.057 9.733,-9.731 -1.231,-1.674 Z"
             style="fill:#ffffff;fill-opacity:1;fill-rule:nonzero;stroke:none"
             id="path64" /></g><g
           id="g66"
           transform="translate(53.7912,224.5083)"><path
             d="M 0,0 C -0.569,0.512 -1.198,0.764 -1.888,0.755 -2.577,0.747 -3.194,0.439 -3.74,-0.167 c -0.547,-0.606 -0.79,-1.254 -0.73,-1.942 0.061,-0.689 0.375,-1.29 0.944,-1.803 l 3.749,-3.38 c 0.569,-0.512 1.198,-0.762 1.89,-0.751 0.692,0.011 1.311,0.32 1.857,0.926 0.546,0.606 0.788,1.252 0.725,1.939 -0.062,0.686 -0.378,1.286 -0.946,1.798 z m -5.122,1.078 c 0.936,1.039 2.013,1.599 3.228,1.683 1.216,0.083 2.288,-0.293 3.213,-1.127 L 5.245,-1.905 C 6.17,-2.739 6.654,-3.766 6.697,-4.984 6.74,-6.202 6.294,-7.331 5.358,-8.369 4.413,-9.417 3.334,-9.979 2.119,-10.055 c -1.214,-0.076 -2.281,0.301 -3.202,1.131 l -3.926,3.538 c -0.925,0.835 -1.412,1.859 -1.459,3.072 -0.047,1.213 0.402,2.344 1.346,3.392"
             style="fill:#ffffff;fill-opacity:1;fill-rule:nonzero;stroke:none"
             id="path68" /></g><g
           id="g70"
           transform="translate(64.6994,240.3325)"><path
             d="M 0,0 8.801,-10.377 7.063,-11.85 -3.599,-7.904 2.81,-15.458 1.224,-16.803 -7.577,-6.426 -5.84,-4.953 4.779,-8.848 -1.585,-1.344 Z"
             style="fill:#ffffff;fill-opacity:1;fill-rule:nonzero;stroke:none"
             id="path72" /></g><g
           id="g74"
           transform="translate(73.4201,244.2534)"><path
             d="m 0,0 2.122,-3.283 4.574,2.957 0.999,-1.546 -4.574,-2.957 2.257,-3.49 4.996,3.23 1.005,-1.554 L 4.637,-11.001 -2.75,0.426 3.991,4.784 4.996,3.23 Z"
             style="fill:#ffffff;fill-opacity:1;fill-rule:nonzero;stroke:none"
             id="path76" /></g><g
           id="g78"
           transform="translate(100.6858,250.1089)"><path
             d="m 0,0 -1.801,4.43 c -0.273,0.674 -0.721,1.15 -1.343,1.426 -0.621,0.277 -1.268,0.278 -1.942,0.005 l -2.47,-1.004 3.729,-9.177 2.471,1.004 c 0.673,0.273 1.136,0.726 1.388,1.358 C 0.284,-1.327 0.273,-0.674 0,0 M 0.082,5.318 1.968,0.677 c 0.414,-1.02 0.418,-2.089 0.011,-3.206 -0.406,-1.117 -1.256,-1.94 -2.551,-2.466 l -4.484,-1.822 -5.122,12.606 4.484,1.821 c 1.295,0.527 2.477,0.531 3.548,0.014 1.071,-0.518 1.813,-1.286 2.228,-2.306"
             style="fill:#ffffff;fill-opacity:1;fill-rule:nonzero;stroke:none"
             id="path80" /></g><g
           id="g82"
           transform="translate(107.6311,262.0464)"><path
             d="m 0,0 3.813,-13.061 -1.995,-0.582 -3.813,13.06 z"
             style="fill:#ffffff;fill-opacity:1;fill-rule:nonzero;stroke:none"
             id="path84" /></g><g
           id="g86"
           transform="translate(126.7912,259.5595)"><path
             d="M 0,0 C 0.696,0.09 1.24,0.362 1.631,0.817 2.022,1.272 2.176,1.83 2.091,2.488 2.006,3.153 1.72,3.657 1.232,4 0.745,4.342 0.146,4.467 -0.562,4.376 L -2.529,4.124 -1.967,-0.252 Z M -0.639,6.232 C 0.623,6.394 1.666,6.152 2.492,5.505 3.318,4.859 3.81,3.934 3.964,2.729 4.117,1.537 3.874,0.523 3.235,-0.311 2.597,-1.146 1.649,-1.644 0.395,-1.805 L -1.732,-2.079 -1.03,-7.537 -3.092,-7.802 -4.826,5.694 Z"
             style="fill:#ffffff;fill-opacity:1;fill-rule:nonzero;stroke:none"
             id="path88" /></g><g
           id="g90"
           transform="translate(138.6418,264.8647)"><path
             d="m 0,0 0.068,-4.25 1.831,0.029 c 0.703,0.012 1.273,0.21 1.713,0.597 0.44,0.387 0.655,0.911 0.644,1.572 -0.011,0.66 -0.241,1.176 -0.69,1.545 C 3.117,-0.138 2.539,0.041 1.83,0.029 Z M 5.285,-11.672 2.1,-6.068 0.099,-6.101 0.19,-11.755 -1.888,-11.789 -2.107,1.816 2.114,1.884 C 3.397,1.905 4.411,1.561 5.153,0.852 5.895,0.143 6.276,-0.813 6.296,-2.015 6.31,-2.894 6.121,-3.658 5.73,-4.306 5.339,-4.954 4.77,-5.427 4.021,-5.724 l 3.456,-5.913 z"
             style="fill:#ffffff;fill-opacity:1;fill-rule:nonzero;stroke:none"
             id="path92" /></g><g
           id="g94"
           transform="translate(158.8664,261.2954)"><path
             d="M 0,0 C 0.091,0.76 -0.065,1.418 -0.471,1.977 -0.875,2.535 -1.482,2.863 -2.292,2.96 -3.103,3.057 -3.771,2.883 -4.3,2.436 -4.828,1.99 -5.138,1.387 -5.229,0.627 L -5.83,-4.385 c -0.091,-0.76 0.067,-1.419 0.475,-1.978 0.408,-0.558 1.017,-0.886 1.827,-0.984 0.81,-0.097 1.477,0.078 2.003,0.525 0.524,0.447 0.833,1.05 0.924,1.81 z M -2.071,4.807 C -0.683,4.64 0.396,4.083 1.164,3.138 1.934,2.192 2.244,1.101 2.096,-0.137 L 1.467,-5.384 c -0.149,-1.238 -0.709,-2.225 -1.68,-2.962 -0.971,-0.737 -2.15,-1.023 -3.538,-0.856 -1.4,0.167 -2.482,0.725 -3.244,1.674 -0.763,0.948 -1.07,2.038 -0.922,3.269 l 0.629,5.247 c 0.148,1.238 0.705,2.225 1.669,2.964 0.965,0.737 2.147,1.023 3.548,0.855"
             style="fill:#ffffff;fill-opacity:1;fill-rule:nonzero;stroke:none"
             id="path96" /></g><g
           id="g98"
           transform="translate(176.8176,247.6865)"><path
             d="m 0,0 -1.933,0.524 2.406,8.628 -5.795,-7.711 -1.237,0.335 -1.001,9.551 -2.286,-8.66 -1.932,0.523 3.556,13.133 1.841,-0.498 1.218,-11.33 6.888,9.135 1.832,-0.496 z"
             style="fill:#ffffff;fill-opacity:1;fill-rule:nonzero;stroke:none"
             id="path100" /></g><g
           id="g102"
           transform="translate(192.2395,251.4639)"><path
             d="M 0,0 C 0.305,0.702 0.344,1.378 0.116,2.029 -0.112,2.68 -0.6,3.168 -1.348,3.493 -2.097,3.818 -2.787,3.843 -3.422,3.567 -4.056,3.291 -4.525,2.801 -4.83,2.099 L -6.842,-2.53 c -0.305,-0.702 -0.343,-1.379 -0.112,-2.031 0.23,-0.652 0.72,-1.141 1.469,-1.466 0.748,-0.325 1.437,-0.349 2.068,-0.072 0.631,0.278 1.1,0.768 1.404,1.47 z M -0.606,5.199 C 0.675,4.642 1.549,3.799 2.015,2.673 2.48,1.546 2.465,0.412 1.969,-0.731 l -2.108,-4.847 c -0.497,-1.143 -1.315,-1.929 -2.457,-2.357 -1.141,-0.428 -2.352,-0.363 -3.634,0.194 -1.294,0.562 -2.17,1.407 -2.629,2.533 -0.459,1.127 -0.441,2.26 0.053,3.396 l 2.107,4.848 c 0.497,1.143 1.312,1.929 2.449,2.36 1.135,0.431 2.35,0.365 3.644,-0.197"
             style="fill:#ffffff;fill-opacity:1;fill-rule:nonzero;stroke:none"
             id="path104" /></g><g
           id="g106"
           transform="translate(209.6857,246.7934)"><path
             d="m 0,0 -0.579,-0.97 -11.268,-5.656 5.893,-3.512 -0.946,-1.589 -8.201,4.886 0.579,0.97 11.251,5.666 -5.672,3.381 0.947,1.589 z"
             style="fill:#ffffff;fill-opacity:1;fill-rule:nonzero;stroke:none"
             id="path108" /></g><g
           id="g110"
           transform="translate(216.6428,241.8384)"><path
             d="m 0,0 -8.068,-10.956 -1.674,1.233 8.069,10.955 z"
             style="fill:#ffffff;fill-opacity:1;fill-rule:nonzero;stroke:none"
             id="path112" /></g><g
           id="g114"
           transform="translate(224.6066,229.5801)"><path
             d="M 0,0 C 0.513,0.567 0.766,1.196 0.758,1.886 0.749,2.575 0.442,3.193 -0.163,3.74 -0.769,4.287 -1.416,4.531 -2.104,4.471 -2.793,4.412 -3.395,4.098 -3.907,3.53 l -3.385,-3.746 c -0.513,-0.568 -0.765,-1.197 -0.754,-1.888 0.011,-0.692 0.318,-1.311 0.924,-1.858 0.605,-0.547 1.252,-0.79 1.938,-0.728 0.687,0.062 1.287,0.376 1.8,0.944 z M 1.084,5.12 C 2.121,4.183 2.681,3.106 2.763,1.89 2.845,0.673 2.468,-0.397 1.632,-1.322 l -3.543,-3.921 c -0.835,-0.925 -1.862,-1.408 -3.08,-1.449 -1.219,-0.042 -2.346,0.405 -3.384,1.342 -1.047,0.946 -1.607,2.026 -1.683,3.241 -0.075,1.214 0.303,2.281 1.135,3.201 l 3.542,3.922 c 0.836,0.924 1.86,1.41 3.074,1.456 1.213,0.046 2.344,-0.404 3.391,-1.35"
             style="fill:#ffffff;fill-opacity:1;fill-rule:nonzero;stroke:none"
             id="path116" /></g><g
           id="g118"
           transform="translate(240.4182,218.6543)"><path
             d="m 0,0 -10.386,-8.789 -1.471,1.738 3.958,10.658 -7.563,-6.399 -1.342,1.586 10.387,8.789 1.471,-1.738 -3.907,-10.615 7.511,6.356 z"
             style="fill:#ffffff;fill-opacity:1;fill-rule:nonzero;stroke:none"
             id="path120" /></g><g
           id="g122"
           transform="translate(244.3303,209.9282)"><path
             d="m 0,0 -3.285,-2.118 2.951,-4.578 -1.547,-0.997 -2.951,4.577 -3.493,-2.252 3.224,-5 -1.554,-1.003 -4.351,6.746 L 0.43,2.75 4.779,-3.997 3.225,-5 Z"
             style="fill:#ffffff;fill-opacity:1;fill-rule:nonzero;stroke:none"
             id="path124" /></g><g
           id="g126"
           transform="translate(250.1154,181.4175)"><path
             d="m 0,0 c -1.058,-0.489 -2.109,-0.514 -3.154,-0.075 -1.046,0.439 -1.831,1.299 -2.358,2.58 -0.508,1.235 -0.573,2.36 -0.197,3.376 0.376,1.016 1.054,1.746 2.034,2.19 L -2.907,6.202 C -3.397,5.932 -3.729,5.519 -3.9,4.962 -4.072,4.407 -4.03,3.818 -3.776,3.198 -3.499,2.525 -3.081,2.07 -2.521,1.831 c 0.559,-0.238 1.108,-0.213 1.645,0.076 0.347,0.17 0.611,0.429 0.794,0.778 0.182,0.348 0.296,0.732 0.343,1.15 0.046,0.42 0.068,0.87 0.065,1.351 -0.003,0.481 0.01,0.967 0.037,1.457 0.029,0.49 0.1,0.953 0.214,1.39 0.114,0.437 0.325,0.848 0.632,1.234 0.307,0.386 0.715,0.691 1.225,0.914 1.09,0.475 2.104,0.475 3.043,-0.002 C 6.414,9.703 7.104,8.926 7.546,7.85 7.983,6.785 8.035,5.78 7.701,4.836 7.368,3.892 6.73,3.171 5.784,2.674 L 5.023,4.526 C 5.43,4.802 5.721,5.173 5.896,5.638 6.07,6.103 6.052,6.593 5.84,7.108 5.614,7.658 5.26,8.051 4.776,8.286 4.293,8.522 3.799,8.522 3.294,8.287 2.835,8.072 2.517,7.693 2.34,7.152 2.162,6.61 2.072,6.009 2.07,5.349 2.067,4.687 2.051,4.022 2.018,3.353 1.985,2.683 1.812,2.037 1.496,1.415 1.181,0.792 0.682,0.321 0,0"
             style="fill:#ffffff;fill-opacity:1;fill-rule:nonzero;stroke:none"
             id="path128" /></g><g
           id="g130"
           transform="translate(259.0178,170.6396)"><path
             d="M 0,0 C 0.739,0.199 1.293,0.59 1.66,1.174 2.026,1.757 2.104,2.443 1.892,3.231 1.68,4.019 1.269,4.575 0.657,4.898 0.046,5.222 -0.629,5.284 -1.368,5.085 L -6.242,3.773 C -6.981,3.574 -7.534,3.182 -7.9,2.595 -8.267,2.008 -8.344,1.321 -8.132,0.533 c 0.212,-0.788 0.623,-1.342 1.235,-1.662 0.609,-0.321 1.284,-0.382 2.023,-0.183 z M 3.688,3.714 C 4.052,2.365 3.938,1.157 3.347,0.09 2.756,-0.976 1.859,-1.671 0.655,-1.995 l -5.103,-1.374 c -1.203,-0.324 -2.328,-0.173 -3.374,0.453 -1.046,0.625 -1.751,1.614 -2.115,2.963 -0.366,1.363 -0.251,2.574 0.344,3.635 0.595,1.061 1.491,1.753 2.689,2.075 l 5.103,1.374 c 1.203,0.323 2.327,0.176 3.372,-0.444 1.045,-0.62 1.75,-1.61 2.117,-2.973"
             style="fill:#ffffff;fill-opacity:1;fill-rule:nonzero;stroke:none"
             id="path132" /></g><g
           id="g134"
           transform="translate(253.7639,156.791)"><path
             d="m 0,0 c 0.097,-0.721 0.37,-1.276 0.821,-1.666 0.45,-0.39 0.965,-0.597 1.542,-0.623 l 0.28,-2.087 c -1.105,-0.045 -2.087,0.31 -2.948,1.067 -0.86,0.756 -1.377,1.783 -1.549,3.081 -0.185,1.386 0.086,2.566 0.815,3.541 0.728,0.974 1.706,1.543 2.935,1.707 l 5.24,0.698 C 8.37,5.883 9.466,5.591 10.421,4.84 11.376,4.09 11.946,3.022 12.131,1.637 12.304,0.339 12.075,-0.786 11.446,-1.738 10.816,-2.69 9.964,-3.292 8.888,-3.544 l -0.28,2.088 c 0.552,0.176 0.994,0.511 1.327,1.005 0.333,0.494 0.451,1.102 0.355,1.823 C 10.183,2.181 9.846,2.786 9.282,3.186 8.718,3.586 8.057,3.736 7.298,3.634 L 2.295,2.967 C 1.536,2.866 0.937,2.549 0.498,2.015 0.059,1.48 -0.107,0.809 0,0"
             style="fill:#ffffff;fill-opacity:1;fill-rule:nonzero;stroke:none"
             id="path136" /></g><g
           id="g138"
           transform="translate(266.718,144.8672)"><path
             d="m 0,0 -13.599,-0.447 -0.069,2.076 13.6,0.448 z"
             style="fill:#ffffff;fill-opacity:1;fill-rule:nonzero;stroke:none"
             id="path140" /></g><g
           id="g142"
           transform="translate(257.9748,135.6787)"><path
             d="m 0,0 -0.218,-3.333 5.847,1.291 z m -5.273,-4.447 3.221,0.711 0.288,4.384 -3.103,1.116 0.139,2.131 L 8.574,-1.199 8.438,-3.282 -5.415,-6.596 Z"
             style="fill:#ffffff;fill-opacity:1;fill-rule:nonzero;stroke:none"
             id="path144" /></g><g
           id="g146"
           transform="translate(253.298,122.0532)"><path
             d="m 0,0 -0.91,-4.907 -1.819,0.337 1.274,6.876 13.379,-2.479 -0.365,-1.969 z"
             style="fill:#ffffff;fill-opacity:1;fill-rule:nonzero;stroke:none"
             id="path148" /></g><g
           id="g150"
           transform="translate(260.0285,107.2764)"><path
             d="m 0,0 -3.736,1.147 -1.599,-5.207 -1.76,0.541 1.599,5.206 -3.973,1.22 -1.746,-5.687 -1.768,0.543 2.355,7.674 L 2.379,1.443 0.023,-6.23 -1.745,-5.687 Z"
             style="fill:#ffffff;fill-opacity:1;fill-rule:nonzero;stroke:none"
             id="path152" /></g><g
           id="g154"
           transform="translate(93.7971,32.7715)"><path
             d="m 0,0 -0.709,-1.512 -5.034,2.361 0.709,1.512 z"
             style="fill:#ffffff;fill-opacity:1;fill-rule:nonzero;stroke:none"
             id="path156" /></g><g
           id="g158"
           transform="translate(109.3615,34.4717)"><path
             d="m 0,0 -0.605,-1.749 -3.255,1.127 -3.845,-11.11 -1.982,0.686 3.845,11.11 -3.246,1.123 0.605,1.749 z"
             style="fill:#ffffff;fill-opacity:1;fill-rule:nonzero;stroke:none"
             id="path160" /></g><g
           id="g162"
           transform="translate(115.6887,30.9389)"><path
             d="M 0,0 -0.892,-4.156 0.899,-4.54 c 0.687,-0.147 1.289,-0.082 1.803,0.195 0.516,0.278 0.843,0.74 0.982,1.387 0.138,0.645 0.031,1.199 -0.324,1.66 -0.353,0.461 -0.878,0.766 -1.569,0.914 z m 2.517,-12.563 -1.838,6.178 -1.958,0.42 -1.186,-5.53 -2.032,0.436 L -1.645,2.245 2.484,1.36 C 3.74,1.09 4.649,0.527 5.213,-0.332 5.776,-1.19 5.932,-2.207 5.68,-3.382 5.495,-4.242 5.139,-4.943 4.611,-5.487 4.084,-6.03 3.423,-6.362 2.627,-6.483 l 2.033,-6.539 z"
             style="fill:#ffffff;fill-opacity:1;fill-rule:nonzero;stroke:none"
             id="path164" /></g><g
           id="g166"
           transform="translate(129.8088,30.4394)"><path
             d="m 0,0 -1.557,-13.517 -2.064,0.238 1.556,13.516 z"
             style="fill:#ffffff;fill-opacity:1;fill-rule:nonzero;stroke:none"
             id="path168" /></g><g
           id="g170"
           transform="translate(137.4094,28.0337)"><path
             d="m 0,0 -0.085,-3.909 5.445,-0.117 -0.04,-1.841 -5.444,0.118 -0.09,-4.155 5.948,-0.129 -0.04,-1.849 -8.026,0.173 0.294,13.604 8.025,-0.174 -0.04,-1.849 z"
             style="fill:#ffffff;fill-opacity:1;fill-rule:nonzero;stroke:none"
             id="path172" /></g><g
           id="g174"
           transform="translate(157.8938,21.084)"><path
             d="m 0,0 c 0.161,-1.154 -0.12,-2.167 -0.844,-3.041 -0.722,-0.872 -1.774,-1.375 -3.153,-1.507 -1.329,-0.127 -2.425,0.136 -3.288,0.79 -0.863,0.655 -1.365,1.516 -1.505,2.582 l 2.012,0.194 c 0.115,-0.549 0.415,-0.986 0.897,-1.311 0.482,-0.326 1.057,-0.457 1.725,-0.393 0.724,0.07 1.281,0.338 1.672,0.804 0.39,0.466 0.525,0.999 0.404,1.597 -0.062,0.382 -0.233,0.71 -0.513,0.985 -0.281,0.275 -0.615,0.495 -1.003,0.662 -0.387,0.166 -0.812,0.318 -1.273,0.454 -0.461,0.138 -0.922,0.29 -1.383,0.459 -0.461,0.169 -0.884,0.371 -1.269,0.608 -0.384,0.236 -0.717,0.557 -0.998,0.963 -0.28,0.404 -0.453,0.883 -0.518,1.437 -0.139,1.181 0.156,2.152 0.884,2.91 0.728,0.76 1.672,1.195 2.83,1.306 1.146,0.109 2.122,-0.132 2.928,-0.726 C -1.588,8.18 -1.083,7.36 -0.882,6.312 L -2.874,6.121 C -3.021,6.589 -3.291,6.975 -3.686,7.277 -4.08,7.58 -4.554,7.704 -5.108,7.651 -5.7,7.595 -6.179,7.369 -6.545,6.975 -6.91,6.581 -7.055,6.108 -6.976,5.556 -6.902,5.055 -6.633,4.641 -6.166,4.314 -5.699,3.987 -5.15,3.726 -4.519,3.533 -3.887,3.339 -3.255,3.129 -2.623,2.904 -1.991,2.678 -1.424,2.325 -0.921,1.842 -0.416,1.359 -0.11,0.746 0,0"
             style="fill:#ffffff;fill-opacity:1;fill-rule:nonzero;stroke:none"
             id="path176" /></g><g
           id="g178"
           transform="translate(170.0959,33.3462)"><path
             d="m 0,0 0.395,-1.808 -3.366,-0.734 2.505,-11.486 -2.049,-0.447 -2.505,11.486 -3.356,-0.732 -0.395,1.808 z"
             style="fill:#ffffff;fill-opacity:1;fill-rule:nonzero;stroke:none"
             id="path180" /></g><g
           id="g182"
           transform="translate(177.3498,33.6357)"><path
             d="M 0,0 1.282,-3.693 6.427,-1.906 7.03,-3.646 1.886,-5.432 3.249,-9.358 8.869,-7.406 9.476,-9.154 1.893,-11.787 -2.57,1.066 5.013,3.699 5.62,1.952 Z"
             style="fill:#ffffff;fill-opacity:1;fill-rule:nonzero;stroke:none"
             id="path184" /></g><g
           id="g186"
           transform="translate(194.7902,35.1772)"><path
             d="m 0,0 0.71,-1.511 -5.032,-2.365 -0.71,1.511 z"
             style="fill:#ffffff;fill-opacity:1;fill-rule:nonzero;stroke:none"
             id="path188" /></g><g
           id="g190"
           transform="translate(111.1125,63.6186)"><path
             d="M 0,0 C 0.35,-0.387 0.798,-0.581 1.345,-0.581 1.892,-0.581 2.34,-0.387 2.689,0 3.04,0.387 3.215,0.886 3.215,1.496 V 3.717 C 3.215,4.342 3.04,4.845 2.689,5.224 2.34,5.604 1.892,5.793 1.345,5.793 0.798,5.793 0.35,5.602 0,5.219 -0.351,4.835 -0.525,4.335 -0.525,3.717 V 1.496 C -0.525,0.886 -0.351,0.387 0,0 m 3.215,13.753 h 2.31 V -2.255 H 3.583 L 3.315,-1.272 C 3.129,-1.562 2.811,-1.849 2.36,-2.132 1.91,-2.415 1.406,-2.556 0.848,-2.556 c -1.049,0 -1.926,0.363 -2.629,1.088 -0.703,0.726 -1.055,1.698 -1.055,2.919 v 2.333 c 0,1.206 0.354,2.17 1.061,2.891 0.707,0.722 1.581,1.083 2.623,1.083 0.595,0 1.098,-0.11 1.506,-0.329 0.41,-0.22 0.697,-0.467 0.861,-0.742 z"
             style="fill:#b71d21;fill-opacity:1;fill-rule:nonzero;stroke:none"
             id="path192" /></g><g
           id="g194"
           transform="translate(121.4602,63.6186)"><path
             d="M 0,0 C 0.35,-0.387 0.798,-0.581 1.345,-0.581 1.892,-0.581 2.34,-0.387 2.69,0 3.04,0.387 3.215,0.886 3.215,1.496 V 3.717 C 3.215,4.342 3.04,4.845 2.69,5.224 2.34,5.604 1.892,5.793 1.345,5.793 0.798,5.793 0.35,5.602 0,5.219 -0.35,4.835 -0.524,4.335 -0.524,3.717 V 1.496 C -0.524,0.886 -0.35,0.387 0,0 M 3.382,7.457 H 5.525 V -2.255 H 3.583 L 3.315,-1.272 C 3.13,-1.562 2.812,-1.849 2.361,-2.132 1.91,-2.415 1.406,-2.556 0.849,-2.556 c -1.05,0 -1.926,0.363 -2.629,1.088 -0.703,0.726 -1.055,1.698 -1.055,2.919 v 2.333 c 0,1.206 0.353,2.17 1.06,2.891 0.708,0.722 1.582,1.083 2.624,1.083 0.595,0 1.097,-0.11 1.506,-0.329 0.41,-0.22 0.697,-0.467 0.86,-0.742 z"
             style="fill:#b71d21;fill-opacity:1;fill-rule:nonzero;stroke:none"
             id="path196" /></g><path
           d="m 129.263,77.372 h 2.311 V 61.364 h -2.311 z"
           style="fill:#b71d21;fill-opacity:1;fill-rule:nonzero;stroke:none"
           id="path198" /><g
           id="g200"
           transform="translate(140.2473,77.3716)"><path
             d="m 0,0 h 2.132 v -16.008 h -2.455 v 13.005 l -2.713,-1.708 v 2.232 z"
             style="fill:#b71d21;fill-opacity:1;fill-rule:nonzero;stroke:none"
             id="path202" /></g><g
           id="g204"
           transform="translate(151.2424,73.6655)"><path
             d="m 0,0 c 0,0.581 -0.182,1.064 -0.547,1.451 -0.364,0.387 -0.807,0.581 -1.328,0.581 -0.536,0 -0.982,-0.19 -1.34,-0.57 C -3.571,1.083 -3.75,0.595 -3.75,0 v -2.311 c 0,-0.595 0.18,-1.083 0.541,-1.462 0.361,-0.38 0.806,-0.569 1.334,-0.569 0.521,0 0.964,0.193 1.328,0.58 C -0.182,-3.375 0,-2.891 0,-2.311 Z M 2.289,-0.212 V -1.675 C 2.289,-2.084 2.246,-2.514 2.16,-2.964 2.075,-3.415 1.987,-3.811 1.898,-4.153 1.809,-4.495 1.619,-5.012 1.329,-5.705 1.039,-6.396 0.799,-6.949 0.608,-7.362 0.419,-7.775 0.069,-8.534 -0.44,-9.639 c -0.51,-1.106 -0.917,-1.993 -1.223,-2.663 h -2.478 l 2.858,6.218 c -0.581,-0.149 -1.143,-0.171 -1.686,-0.067 -0.93,0.134 -1.678,0.556 -2.244,1.267 -0.565,0.711 -0.849,1.628 -0.849,2.752 v 1.92 c 0,1.339 0.378,2.376 1.134,3.108 0.755,0.733 1.774,1.1 3.053,1.1 1.28,0 2.294,-0.367 3.042,-1.1 0.748,-0.732 1.122,-1.769 1.122,-3.108"
             style="fill:#b71d21;fill-opacity:1;fill-rule:nonzero;stroke:none"
             id="path206" /></g><g
           id="g208"
           transform="translate(161.9143,73.6655)"><path
             d="m 0,0 c 0,0.581 -0.183,1.064 -0.547,1.451 -0.364,0.387 -0.807,0.581 -1.328,0.581 -0.536,0 -0.982,-0.19 -1.34,-0.57 C -3.572,1.083 -3.75,0.595 -3.75,0 v -2.311 c 0,-0.595 0.18,-1.083 0.541,-1.462 0.361,-0.38 0.806,-0.569 1.334,-0.569 0.521,0 0.964,0.193 1.328,0.58 C -0.183,-3.375 0,-2.891 0,-2.311 Z M 2.289,-0.212 V -1.675 C 2.289,-2.084 2.246,-2.514 2.16,-2.964 2.075,-3.415 1.987,-3.811 1.898,-4.153 1.809,-4.495 1.619,-5.012 1.329,-5.705 1.038,-6.396 0.799,-6.949 0.608,-7.362 0.419,-7.775 0.069,-8.534 -0.44,-9.639 c -0.51,-1.106 -0.917,-1.993 -1.223,-2.663 h -2.479 l 2.859,6.218 c -0.581,-0.149 -1.143,-0.171 -1.686,-0.067 -0.93,0.134 -1.678,0.556 -2.244,1.267 -0.565,0.711 -0.849,1.628 -0.849,2.752 v 1.92 c 0,1.339 0.378,2.376 1.134,3.108 0.755,0.733 1.773,1.1 3.053,1.1 1.28,0 2.294,-0.367 3.042,-1.1 0.748,-0.732 1.122,-1.769 1.122,-3.108"
             style="fill:#b71d21;fill-opacity:1;fill-rule:nonzero;stroke:none"
             id="path210" /></g><g
           id="g212"
           transform="translate(171.0119,72.1362)"><path
             d="m 0,0 c 1.064,0 1.975,-0.374 2.729,-1.122 0.756,-0.748 1.134,-1.77 1.134,-3.064 v -2.679 c 0,-1.34 -0.378,-2.376 -1.134,-3.109 -0.754,-0.734 -1.772,-1.1 -3.052,-1.1 -1.324,0 -2.35,0.363 -3.075,1.089 -0.726,0.725 -1.089,1.765 -1.089,3.12 v 0.547 h 2.289 v -0.748 c 0,-0.581 0.183,-1.065 0.552,-1.452 0.369,-0.387 0.809,-0.58 1.323,-0.58 0.536,0 0.982,0.19 1.34,0.569 0.356,0.38 0.535,0.867 0.535,1.463 v 3.058 c 0,0.595 -0.179,1.083 -0.535,1.463 -0.358,0.379 -0.804,0.569 -1.34,0.569 -0.454,0 -0.849,-0.147 -1.184,-0.441 -0.335,-0.294 -0.551,-0.687 -0.647,-1.178 h -2.188 l 0.134,8.92 H 3.45 V 3.148 H -2.087 L -2.132,-0.759 C -1.41,-0.253 -0.699,0 0,0"
             style="fill:#b71d21;fill-opacity:1;fill-rule:nonzero;stroke:none"
             id="path214" /></g></g></g><g
       id="g216"><g
         id="g218"><g
           id="g224"><g
             id="g226"><path
               d="m 107.501,219.175 v 0 c -0.042,-0.093 -0.073,-0.19 -0.099,-0.291 v 0 L 92.987,164.096 c -0.327,-1.247 0.17,-2.56 1.242,-3.277 v 0 l 37.214,-24.858 c 0.355,-0.237 0.726,-0.443 1.111,-0.615 v 0 0 c 1.318,-0.598 2.783,-0.824 4.234,-0.634 v 0 c 0.066,0.008 0.133,0.018 0.198,0.028 v 0 l 36.284,5.646 c 1.604,0.248 2.923,1.396 3.391,2.952 v 0 l 15.945,52.916 c 0.313,1.034 -0.167,2.14 -1.136,2.615 v 0 l -40.878,20.08 c -0.759,0.374 -1.589,0.58 -2.435,0.606 v 0 l -37.646,1.157 h -0.002 l -0.633,0.02 c -0.028,0.001 -0.056,0.002 -0.083,0.002 v 0 c -1.018,0 -1.922,-0.628 -2.292,-1.559 m 42.195,-23.049 -0.001,0.001 3.066,2.94 v -0.001 z"
               style="fill:url(#radialGradient238);stroke:none"
               id="path240" /></g></g></g></g><g
       id="g242"><g
         id="g244"><g
           id="g250"><g
             id="g252"><path
               d="M 107.402,218.884 92.987,164.096 c -0.327,-1.247 0.17,-2.56 1.242,-3.277 v 0 l 37.214,-24.858 c 0.356,-0.237 0.726,-0.443 1.112,-0.615 v 0 l 17.141,60.78 -42.195,23.049 c -0.042,-0.092 -0.073,-0.19 -0.099,-0.291"
               style="fill:url(#linearGradient258);stroke:none"
               id="path260" /></g></g></g></g><g
       id="g262"><g
         id="g264"><g
           id="g270"><g
             id="g272"><path
               d="m 107.501,219.175 42.194,-23.049 3.066,2.941 -42.25,21.645 h -0.002 l -0.633,0.02 c -0.028,0.001 -0.056,0.002 -0.083,0.002 v 0 c -1.018,0 -1.922,-0.628 -2.292,-1.559"
               style="fill:url(#linearGradient282);stroke:none"
               id="path284" /></g></g></g></g><g
       id="g286"><g
         id="g288"><g
           id="g294"><g
             id="g296"><path
               d="m 152.761,199.067 38.709,-0.198 -40.878,20.08 c -0.759,0.374 -1.589,0.58 -2.435,0.606 v 0 l -37.646,1.157 z"
               style="fill:url(#linearGradient304);stroke:none"
               id="path306" /></g></g></g></g><g
       id="g308"><g
         id="g310"><g
           id="g316"><g
             id="g318"><path
               d="m 132.554,135.346 c 1.318,-0.598 2.783,-0.824 4.234,-0.634 v 0 l 17.508,61.287 -4.601,0.127 z"
               style="fill:url(#linearGradient326);stroke:none"
               id="path328" /></g></g></g></g><g
       id="g330"><g
         id="g332"><g
           id="g338"><g
             id="g340"><path
               d="m 154.296,195.999 -17.508,-61.287 c 0.066,0.008 0.133,0.018 0.198,0.028 v 0 l 36.284,5.646 c 1.604,0.248 2.923,1.396 3.391,2.952 v 0 l 15.945,52.916 z"
               style="fill:url(#linearGradient348);stroke:none"
               id="path350" /></g></g></g></g><g
       id="g352"><g
         id="g354"><g
           id="g360"><g
             id="g362"><path
               d="m 154.296,195.999 38.31,0.255 c 0.313,1.034 -0.167,2.14 -1.136,2.615 v 0 l -38.709,0.198 z"
               style="fill:url(#linearGradient370);stroke:none"
               id="path372" /></g></g></g></g><g
       id="g374"><g
         id="g376"><g
           id="g382"><g
             id="g384"><path
               d="m 149.696,196.126 4.601,-0.127 -1.534,3.068 z"
               style="fill:url(#radialGradient396);stroke:none"
               id="path398" /></g></g></g></g><g
       id="g400"><g
         id="g402"
         clip-path="url(#clipPath406)"><g
           id="g408"
           transform="translate(117.9875,200.1343)"><path
             d="m 0,0 c -0.581,-1.589 -1.609,-2.783 -2.898,-3.361 -1.289,-0.576 -2.683,-0.466 -3.93,0.313 -0.035,0.022 -0.072,0.047 -0.109,0.069 -2.484,1.64 -3.552,5.56 -2.374,8.798 0.582,1.592 1.61,2.785 2.899,3.361 1.291,0.578 2.683,0.466 3.929,-0.31 C -2.448,8.848 -2.413,8.825 -2.378,8.8 -1.187,8.014 -0.283,6.695 0.173,5.068 0.641,3.394 0.58,1.594 0,0"
             style="fill:#000000;fill-opacity:1;fill-rule:nonzero;stroke:none"
             id="path410" /></g><g
           id="g412"
           transform="translate(125.386,176.0244)"><path
             d="m 0,0 c -1.199,-3.286 -4.26,-4.655 -6.828,-3.051 -0.035,0.023 -0.072,0.045 -0.11,0.071 -1.189,0.785 -2.09,2.106 -2.545,3.731 -0.468,1.674 -0.409,3.474 0.172,5.066 0.581,1.592 1.61,2.786 2.899,3.361 1.289,0.578 2.685,0.468 3.927,-0.31 C -2.45,8.845 -2.415,8.823 -2.381,8.8 0.112,7.156 1.181,3.241 0,0"
             style="fill:#000000;fill-opacity:1;fill-rule:nonzero;stroke:none"
             id="path414" /></g><g
           id="g416"
           transform="translate(133.6223,149.019)"><path
             d="m 0,0 c -0.58,-1.592 -1.609,-2.786 -2.9,-3.364 -1.289,-0.575 -2.684,-0.465 -3.927,0.311 -0.033,0.022 -0.068,0.042 -0.101,0.065 -1.193,0.788 -2.097,2.11 -2.555,3.737 -0.468,1.676 -0.408,3.473 0.172,5.068 0.582,1.592 1.61,2.786 2.899,3.361 1.289,0.575 2.683,0.466 3.927,-0.31 C -2.447,8.845 -2.415,8.823 -2.378,8.8 -1.187,8.012 -0.285,6.693 0.171,5.066 0.641,3.392 0.578,1.589 0,0"
             style="fill:#000000;fill-opacity:1;fill-rule:nonzero;stroke:none"
             id="path418" /></g><g
           id="g420"
           transform="translate(170.0705,171.9585)"><path
             d="m 0,0 c -0.041,0.077 -0.085,0.152 -0.13,0.226 -1.5,2.441 -4.59,1.857 -6.903,-1.302 -2.243,-3.064 -2.931,-7.427 -1.602,-9.915 0.041,-0.077 0.085,-0.152 0.13,-0.225 1.499,-2.442 4.591,-1.859 6.903,1.299 C 0.643,-6.852 1.33,-2.488 0,0"
             style="fill:#000000;fill-opacity:1;fill-rule:nonzero;stroke:none"
             id="path422" /></g><g
           id="g424"
           transform="translate(156.4426,208.0317)"><path
             d="M 0,0 C 0.053,0.014 0.104,0.029 0.154,0.044 1.805,0.565 0.72,1.989 -2.269,3.225 -5.166,4.423 -8.791,5.004 -10.512,4.562 -10.565,4.548 -10.617,4.534 -10.667,4.518 -12.316,3.997 -11.232,2.573 -8.245,1.337 -5.348,0.139 -1.723,-0.442 0,0"
             style="fill:#000000;fill-opacity:1;fill-rule:nonzero;stroke:none"
             id="path426" /></g><g
           id="g428"
           transform="translate(158.4816,201.812)"><path
             d="M 0,0 C 0.054,0.014 0.105,0.028 0.155,0.044 1.805,0.565 0.72,1.989 -2.268,3.225 -5.165,4.423 -8.79,5.004 -10.512,4.562 -10.564,4.548 -10.616,4.534 -10.666,4.518 -12.316,3.997 -11.232,2.573 -8.244,1.337 -5.347,0.139 -1.722,-0.442 0,0"
             style="fill:#000000;fill-opacity:1;fill-rule:nonzero;stroke:none"
             id="path430" /></g><g
           id="g432"
           transform="translate(180.4641,201.3008)"><path
             d="M 0,0 C 0.054,0.014 0.105,0.029 0.154,0.044 1.805,0.565 0.72,1.989 -2.268,3.225 -5.166,4.423 -8.79,5.004 -10.512,4.562 -10.565,4.548 -10.616,4.534 -10.666,4.518 -12.316,3.997 -11.232,2.573 -8.245,1.337 -5.347,0.139 -1.722,-0.442 0,0"
             style="fill:#000000;fill-opacity:1;fill-rule:nonzero;stroke:none"
             id="path434" /></g><g
           id="g436"
           transform="translate(154.4826,214.0014)"><path
             d="M 0,0 C 0.054,0.014 0.105,0.028 0.154,0.044 1.805,0.565 0.72,1.989 -2.268,3.225 -5.166,4.423 -8.79,5.003 -10.512,4.562 -10.565,4.548 -10.616,4.534 -10.666,4.518 -12.316,3.997 -11.232,2.572 -8.245,1.337 -5.347,0.139 -1.722,-0.442 0,0"
             style="fill:#000000;fill-opacity:1;fill-rule:nonzero;stroke:none"
             id="path438" /></g><g
           id="g440"
           transform="translate(132.4172,215.0239)"><path
             d="M 0,0 C 0.053,0.014 0.104,0.028 0.154,0.044 1.805,0.565 0.72,1.989 -2.269,3.225 -5.166,4.423 -8.791,5.003 -10.512,4.562 -10.565,4.548 -10.617,4.533 -10.666,4.518 -12.316,3.997 -11.232,2.572 -8.245,1.337 -5.347,0.139 -1.723,-0.442 0,0"
             style="fill:#000000;fill-opacity:1;fill-rule:nonzero;stroke:none"
             id="path442" /></g><g
           id="g444"
           transform="translate(106.1184,223.2539)"><path
             d="M 0,0 -3.003,-8.946 -1.853,3.643 14.123,2.364 Z"
             style="fill:#000000;fill-opacity:1;fill-rule:nonzero;stroke:none"
             id="path446" /></g><g
           id="g448"
           transform="translate(190.8527,206.5215)"><path
             d="m 0,0 c 0,0 10.352,-5.825 10.544,-5.761 0.191,0.064 -7.477,-14.634 -7.477,-14.634 l 3.834,14.25 z"
             style="fill:#000000;fill-opacity:1;fill-rule:nonzero;stroke:none"
             id="path450" /></g><g
           id="g452"
           transform="translate(179.9836,143.3764)"><path
             d="m 0,0 -0.889,-4.856 -9.649,-2.237 11.247,0.384 z"
             style="fill:#000000;fill-opacity:1;fill-rule:nonzero;stroke:none"
             id="path454" /></g><g
           id="g456"
           transform="translate(111.7424,145.2915)"><path
             d="M 0,0 20.812,-15.462 32.909,-11.5 19.745,-20.83 Z"
             style="fill:#000000;fill-opacity:1;fill-rule:nonzero;stroke:none"
             id="path458" /></g><g
           id="g460"
           transform="translate(123.4123,145.4263)"><path
             d="m 0,0 c -0.369,-7.215 -0.738,-14.433 -1.106,-21.648 -0.116,-3.413 -0.232,-6.825 -0.347,-10.237 0.271,-3.985 -0.204,-8.205 0.484,-11.62 l 0.346,-1.868 c 0.668,-1.176 2.494,-1.322 3.874,-1.798 0.493,-0.17 0.805,-0.573 1.176,-0.761 0.622,-0.115 1.245,-0.23 1.867,-0.345 2.532,-0.668 4.016,-0.44 6.433,0.415 v 0.207 c -3.047,2.577 -3.597,7.537 -3.597,13.003 -0.001,2.588 0.089,4.578 0.83,6.294 3.349,7.758 8.852,11.829 17.152,14.663 3.359,1.147 7.341,2.174 11.897,1.383 0.83,-0.068 1.66,-0.138 2.49,-0.207 0.45,0.122 0.724,0.71 1.384,0.484 0.207,-0.184 0.415,-0.368 0.622,-0.553 v -0.138 c -2.052,-1.584 -3.152,-3.781 -3.943,-6.64 -0.23,-1.545 -0.46,-3.09 -0.691,-4.634 l -1.245,-0.692 v 4.081 c -1.439,4.938 -13.158,4.216 -17.015,1.867 -2.096,-1.276 -2.949,-3.9 -4.081,-6.155 -0.517,-1.032 -2.295,-4.737 -1.798,-6.433 0.438,-0.461 0.876,-0.922 1.314,-1.383 6.179,0.184 12.358,0.369 18.537,0.553 2.451,0.454 4.293,1.712 6.57,2.006 v -0.069 l -1.936,-4.427 c -0.386,-1.164 -0.512,-2.1 -1.107,-2.974 -0.252,0.044 -0.21,0.028 -0.346,0.139 -0.727,0.353 -0.994,1.445 -1.66,1.729 -5.106,2.179 -13.811,1.038 -20.542,1.037 1.319,-7.931 7.248,-13.919 15.216,-15.217 2.586,-0.42 6.54,0.291 8.3,0.9 0.939,0.325 1.903,0.151 2.697,0.484 0.485,0.323 0.969,0.646 1.454,0.969 0.759,0.475 2.259,1.106 2.904,0.276 -2.05,-2.227 -4.776,-3.285 -7.539,-4.841 -1.663,-0.937 -3.478,-2.065 -5.602,-2.491 l -3.389,-0.068 c -2.97,-0.453 -6.817,0.234 -9.476,1.175 -3.111,1.101 -3.763,2.283 -5.948,4.012 -1.73,-1.183 -4.062,-2.705 -6.157,-3.39 H 5.81 1.383 c -1.107,0.37 -2.213,0.738 -3.32,1.107 -1.833,0.479 -6.838,-1.149 -7.055,-0.692 0.469,1.437 1.563,2.096 2.075,3.39 0.161,1.89 0.323,3.781 0.484,5.671 0.254,1.525 0.147,3.359 0.415,5.049 v 3.389 c 0.046,4.772 0.092,9.546 0.139,14.318 0,2.951 0.094,6.085 -0.415,8.507 -0.165,0.784 -0.063,2.36 -0.623,2.767 -1.39,0.875 -3.764,0.844 -6.086,0.83 v 0.069 c 0.092,0.576 0.184,1.153 0.276,1.729 3.072,0.594 6.882,4.047 9.268,5.741 0.508,0.391 1.015,0.784 1.522,1.176 C -1.291,0.092 -0.646,0.046 0,0"
             style="fill:#000000;fill-opacity:1;fill-rule:evenodd;stroke:none"
             id="path462" /></g><g
           id="g464"
           transform="translate(99.55,95.2124)"><path
             d="M 0,0 C -0.019,0.509 -0.013,1.07 0.139,1.383 0.575,1.451 0.885,1.466 0.968,1.937 0.622,3.55 0.276,5.165 -0.069,6.778 c -1.508,5.177 -4.383,10.409 -6.433,15.217 -1.011,2.37 -2.104,4.443 -3.182,6.639 -0.415,0.969 -0.83,1.937 -1.245,2.906 -1.584,-0.452 -2.202,-3.086 -2.835,-4.497 -1.557,-3.468 -3.209,-6.857 -4.772,-10.443 -0.588,-1.349 -1.636,-2.779 -1.868,-4.358 1.979,0.213 4.048,0.831 5.81,1.453 0.965,0.34 3.002,1.127 4.703,0.622 1.222,-0.645 2.445,-1.291 3.666,-1.937 0.597,-0.278 2.782,0.1 3.182,-0.415 0.154,-0.333 0.095,-0.988 0,-1.175 -2.056,-0.489 -8.183,-3.712 -10.929,-2.767 -1.861,0.641 -3.547,4.094 -7.054,2.698 -0.884,-0.604 -3.871,-6.996 -2.975,-8.923 0.548,-0.205 1.024,-0.644 1.176,-1.245 -1.59,-0.069 -3.182,-0.138 -4.772,-0.207 -1.578,-0.587 -3.493,-2.057 -5.741,-1.591 0.317,2.34 1.992,2.77 3.043,4.288 1.084,1.729 2.168,3.458 3.251,5.187 2.561,4.322 4.603,8.478 6.917,13.073 2.074,3.642 4.149,7.286 6.225,10.928 1.291,4.034 2.582,8.07 3.873,12.104 h 0.415 c 0.184,-0.046 0.369,-0.092 0.553,-0.138 1.707,-4.404 3.413,-8.808 5.119,-13.211 C -1.416,24.076 1.237,17.297 4.703,11.343 5.888,9.308 6.778,7.168 8.161,5.326 9.176,4.312 10.19,3.297 11.205,2.282 12.294,1.558 13.775,1.526 14.594,0.553 14.502,0.392 14.409,0.23 14.317,0.069 10.629,0.161 6.939,0.253 3.251,0.346 2.167,0.23 1.083,0.115 0,0"
             style="fill:#000000;fill-opacity:1;fill-rule:evenodd;stroke:none"
             id="path466" /></g><g
           id="g468"
           transform="translate(191.8859,139.5473)"><path
             d="m 0,0 c 0.323,-0.069 0.646,-0.138 0.969,-0.208 1.221,-3.135 2.443,-6.271 3.665,-9.406 2.948,-8.045 6.009,-15.896 9.822,-22.963 2.608,-4.835 4.777,-8.923 10.098,-11.067 v -0.276 c -0.092,-0.115 -0.185,-0.23 -0.277,-0.346 -3.273,0.092 -6.548,0.184 -9.821,0.277 -1.499,-0.093 -2.998,-0.185 -4.496,-0.277 v 0.069 c 0.046,0.415 0.092,0.83 0.139,1.245 0.531,0.08 0.83,0.094 0.829,0.761 -0.346,1.567 -0.692,3.136 -1.037,4.703 -1.061,2.559 -2.121,5.119 -3.182,7.678 -0.507,1.406 -1.015,2.812 -1.522,4.219 -1.173,2.03 -1.957,4.471 -3.112,6.64 -0.966,1.812 -2.573,3.883 -2.905,6.156 h -0.207 c -0.254,-0.093 -0.508,-0.185 -0.761,-0.277 -2.107,-4.525 -4.169,-8.995 -6.295,-13.626 -0.777,-1.694 -1.925,-3.475 -2.351,-5.395 h 0.208 c 1.198,0.277 2.397,0.553 3.596,0.83 1.541,0.46 4.283,1.962 6.709,1.245 l 4.219,-2.144 h 2.629 l 0.138,-1.314 c -0.369,-0.587 -7.202,-2.575 -8.369,-2.836 h -2.698 c -1.396,0.544 -2.475,2.146 -3.942,2.767 -0.767,0.324 -2.795,0.091 -3.32,-0.208 -0.484,-1.233 -3.789,-6.613 -2.835,-8.645 0.271,-0.581 1.04,-0.552 1.244,-1.384 -1.568,-0.069 -3.135,-0.138 -4.703,-0.207 -1.483,-0.483 -3.632,-2.233 -5.741,-1.591 0.03,2.372 2.103,2.885 3.043,4.357 1.828,2.86 3.425,5.85 5.188,8.785 2.704,4.501 4.846,9.512 7.539,14.109 1.268,2.213 2.536,4.427 3.804,6.64 C -2.49,-7.793 -1.245,-3.896 0,0"
             style="fill:#000000;fill-opacity:1;fill-rule:evenodd;stroke:none"
             id="path470" /></g></g></g></g></svg>
